<svg xmlns="http://www.w3.org/2000/svg" xmlns:xlink="http://www.w3.org/1999/xlink" width="234" height="30" viewBox="0 0 234 30">
    <defs>
        <path id="a" d="M165.572.556H0V29.76h165.572z"/>
        <path id="c" d="M0 28.828h235.714V0H0z"/>
    </defs>
    <g fill="none" fill-rule="evenodd">
        <mask id="b" fill="#fff">
            <use xlink:href="#a"/>
        </mask>
        <path fill="#6E006E" d="M149.501 7.948h1.987c1.334 0 1.72.367 1.868 1.467l.088.672h.534c.653-1.497 2.254-2.505 4.715-2.505 4.359 0 6.879 3.3 6.879 7.515v.703c0 4.369-2.372 7.485-6.998 7.485-2.075 0-3.32-.642-4.15-1.925h-.534c.296 1.13.385 2.23.385 3.422v1.558h2.165c.8 0 .978.336.978 1.71 0 1.375-.178 1.711-.978 1.711h-7.562c-.8 0-.978-.336-.978-1.71 0-1.375.178-1.711.978-1.711h1.157V11.95c0-.488-.178-.58-.563-.58h-.564c-.8 0-1.008-.397-1.008-1.374 0-1.497.355-2.048 1.601-2.048zm4.626 6.63v2.047c0 2.169 1.334 3.207 3.498 3.207 2.373 0 3.619-1.68 3.619-4.246v-.245c0-2.719-1.157-4.398-3.648-4.398-2.164 0-3.47 1.374-3.47 3.635zm-25.62-6.63c-1.244 0-1.6.55-1.6 2.048 0 .977.207 1.374 1.008 1.374h.563c.386 0 .564.092.564.58v4.522c0 4.094 1.542 6.813 6.049 6.813 2.52 0 3.943-.764 4.566-2.2h.534c.444 1.345 1.394 1.832 3.32 1.832h1.246c.771 0 .979-.274.979-1.68 0-1.405-.208-1.649-.979-1.649h-.267c-.563 0-.712-.183-.712-.703V9.751c0-1.374-.444-1.803-2.134-1.803h-2.64c-1.245 0-1.6.55-1.6 2.048 0 .977.207 1.374 1.007 1.374h.564c.386 0 .564.092.564.58v4.309c0 2.474-1.187 3.604-3.5 3.604-2.045 0-2.757-.917-2.757-4.002v-6.11c0-1.374-.445-1.803-2.134-1.803h-2.64zm-19.035 7.883v-.734c0-4.949 2.906-7.515 7.947-7.515 5.04 0 7.946 2.566 7.946 7.515v.734c0 4.948-2.905 7.454-7.946 7.454s-7.947-2.506-7.947-7.454zm4.33-.55v.336c0 2.78 1.037 4.337 3.617 4.337s3.617-1.558 3.617-4.337v-.337c0-2.78-1.038-4.368-3.617-4.368-2.58 0-3.618 1.588-3.618 4.368zM96.247 7.947c-1.246 0-1.602.55-1.602 2.048 0 .977.208 1.374 1.008 1.374h.564c.386 0 .563.092.563.58v7.546h-1.156c-.8 0-.979.336-.979 1.711s.178 1.71.979 1.71h7.057c.8 0 .978-.335.978-1.71s-.177-1.71-.978-1.71h-1.66v-3.422c0-3.3 1.155-4.735 3.38-4.735.444 0 1.037.091 1.571.245.83.213 1.305-.061 1.69-1.437.415-1.527.267-1.925-.385-2.17a6.009 6.009 0 0 0-2.194-.396c-2.343 0-3.855 1.07-4.389 2.994h-.504l-.089-1.16c-.089-1.162-.623-1.468-1.868-1.468h-1.986zm-25.441 4.644c0 6.813 3.676 10.693 10.556 10.693 2.342 0 4.121-.52 5.248-1.558h.534c.148 1.099.681 1.313 2.046 1.313 1.542 0 1.986-.245 1.986-1.13v-9.532c0-1.283-.326-1.618-1.808-1.618h-7.117c-.919 0-1.097.366-1.097 1.74 0 1.436.178 1.742 1.097 1.742h4.596v4.796c-1.245.336-2.757.52-4.33.52-5.277 0-7.175-2.262-7.175-7.364v-.548c0-4.37 1.839-7.455 6.998-7.455 1.453 0 2.995.183 4.33.52v1.466c0 .977.474 1.16 2.164 1.16 1.78 0 2.164-.183 2.164-1.19V4.16c0-1.405-.444-2.107-2.371-2.75-1.75-.55-3.885-.855-5.96-.855-8.125 0-11.861 4.278-11.861 11.06v.977zM44.299.922h8.42c6.731 0 9.964 2.352 9.964 6.782v.61c0 4.92-3.351 6.936-8.57 6.936-1.423 0-2.639-.366-3.677-.978h-.562v5.224h2.223c.83 0 .978.306.978 1.711s-.148 1.71-.978 1.71H44.21c-.771 0-.979-.305-.979-1.71s.208-1.71.979-1.71h1.275V4.343H44.3c-.771 0-.979-.306-.979-1.711S43.528.922 44.3.922zm5.575 3.422v7.149c1.215.244 2.312.305 3.765.305 3.262 0 4.507-1.161 4.507-3.697v-.153c0-2.351-1.63-3.604-5.84-3.604h-2.432zM22.83.922h8.422c6.73 0 9.962 2.352 9.962 6.782v.61c0 4.92-3.35 6.936-8.57 6.936-1.422 0-2.638-.366-3.676-.978h-.563v5.224h2.224c.83 0 .978.306.978 1.711s-.148 1.71-.978 1.71h-7.888c-.77 0-.978-.305-.978-1.71s.207-1.71.978-1.71h1.276V4.343H22.83c-.77 0-.978-.306-.978-1.711S22.06.922 22.83.922zm5.575 3.422v7.149c1.216.244 2.313.305 3.765.305 3.262 0 4.508-1.161 4.508-3.697v-.153c0-2.351-1.631-3.604-5.842-3.604h-2.431zM0 12.348c0 7.393 3.676 10.937 11.504 10.937 2.284 0 4.389-.276 6.316-.794.771-.215.92-.52.564-2.109-.326-1.466-.682-1.619-1.542-1.436a21.84 21.84 0 0 1-4.715.52c-5.455 0-7.59-2.2-7.59-7.455v-.64c0-4.492 1.571-7.15 6.256-7.15 1.305 0 2.58.184 3.736.49v2.138c0 .977.504 1.16 2.194 1.16 1.75 0 2.135-.183 2.135-1.19v-2.69c0-1.587-.445-2.168-2.135-2.749-1.66-.55-3.617-.825-5.574-.825C3.558.555-.001 4.588-.001 11.34v1.008z" mask="url(#b)"/>
        <mask id="d" fill="#fff">
            <use xlink:href="#c"/>
        </mask>
        <path fill="#C30078" d="M194.607 16.673h7.411V9.66h-7.41v7.013zm-10.174 0h7.537V9.66h-7.537v7.013zm7.285-14.977c2.386.139 3.56.297 3.517.476 0 .08-.052.248-.156.504-.21.457-.326.844-.346 1.16a26.156 26.156 0 0 0-.094 1.842c-.022.337-.032.962-.032 1.873h4.051c2.491-.02 4.67-.1 6.532-.238-.125 1.467-.23 3.269-.313 5.408v3.15c.062 2.24.146 3.844.25 4.815h-3.234c.083-.655.125-1.279.125-1.873h-7.41v5.349c.063 2.22.145 3.775.25 4.666h-3.077c.105-.932.168-2.486.19-4.666v-5.349h-7.475c0 .813.041 1.516.125 2.11h-3.172c.105-1.168.189-2.872.252-5.111v-3.15c-.042-2.437-.126-4.22-.252-5.349 1.152.138 3.182.218 6.093.238h4.428c-.021-2.635-.105-4.587-.252-5.855zM226.42 15.12c.337.315.98 1.164 1.93 2.547.06.084.099.147.119.189l-2.285 1.257c-.634-1.173-1.267-2.116-1.9-2.829l2.137-1.163zm-11.187-8.3c2.236.126 3.729.189 4.48.189h5.046c2.176-.041 3.729-.104 4.659-.188v2.42c-.91-.104-2.443-.167-4.6-.188h-1.572v3.49h1.572c1.583-.063 2.918-.168 4.007-.314v2.577a124.05 124.05 0 0 0-3.947-.125h-1.632v4.998h2.167c2.056-.042 3.53-.125 4.42-.251v2.61a59.207 59.207 0 0 0-4.42-.252h-6.233c-2.275.042-3.829.105-4.66.188v-2.546c1.207.126 2.721.21 4.54.251h1.93v-4.998h-1.157c-.852.021-2.186.084-4.007.188v-2.515c.95.105 2.266.169 3.947.188h1.217V9.116h-1.217c-2.037 0-3.55.043-4.54.125v-2.42zm-2.255 17.764h18.339V4.211h-18.34v20.373zm-2.7-22.888c1.048.147 2.106.23 3.174.251h17.51c1.344-.02 2.363-.104 3.056-.251a21.18 21.18 0 0 0-.238 3.113v21.976c0 .922.08 1.603.238 2.043h-2.879c.119-.628.178-1.289.178-1.98h-18.34c.02.733.1 1.371.238 1.918h-2.938a9.673 9.673 0 0 0 .237-1.918V4.682c-.02-1.214-.1-2.21-.237-2.986z" mask="url(#d)"/>
    </g>
</svg>
